<svg width="37" height="34" viewBox="0 0 37 34" fill="none" xmlns="http://www.w3.org/2000/svg">
<path d="M9.6775 3.75L8.75 0.25H2.1875C1.72337 0.25 1.27825 0.434374 0.950063 0.762563C0.621874 1.09075 0.4375 1.53587 0.4375 2C0.4375 2.46413 0.621874 2.90925 0.950063 3.23744C1.27825 3.56563 1.72337 3.75 2.1875 3.75H6.0725L11.725 26.5H35V23H14.455L13.8775 20.655L36.75 16.2975V3.75H9.6775ZM33.25 13.41L13.0375 17.2425L10.5 7.25H33.25V13.41ZM12.25 28.25C11.7308 28.25 11.2233 28.404 10.7916 28.6924C10.3599 28.9808 10.0235 29.3908 9.82482 29.8705C9.62614 30.3501 9.57415 30.8779 9.67544 31.3871C9.77672 31.8963 10.0267 32.364 10.3938 32.7312C10.761 33.0983 11.2287 33.3483 11.7379 33.4496C12.2471 33.5508 12.7749 33.4989 13.2545 33.3002C13.7342 33.1015 14.1442 32.765 14.4326 32.3334C14.721 31.9017 14.875 31.3942 14.875 30.875C14.875 30.1788 14.5984 29.5111 14.1062 29.0188C13.6139 28.5266 12.9462 28.25 12.25 28.25ZM33.25 28.25C32.7308 28.25 32.2233 28.404 31.7916 28.6924C31.3599 28.9808 31.0235 29.3908 30.8248 29.8705C30.6261 30.3501 30.5742 30.8779 30.6754 31.3871C30.7767 31.8963 31.0267 32.364 31.3938 32.7312C31.761 33.0983 32.2287 33.3483 32.7379 33.4496C33.2471 33.5508 33.7749 33.4989 34.2545 33.3002C34.7342 33.1015 35.1442 32.765 35.4326 32.3334C35.721 31.9017 35.875 31.3942 35.875 30.875C35.875 30.1788 35.5984 29.5111 35.1062 29.0188C34.6139 28.5266 33.9462 28.25 33.25 28.25Z" fill="white"/>
</svg>
